<svg width="630" height="630" viewBox="0 0 630 630" fill="none" xmlns="http://www.w3.org/2000/svg">
<path d="M408.276 14.6977C410.779 15.5024 413.297 16.2601 415.817 17.0083C494.906 41.2583 559.583 101.571 597.877 173.191C604.248 185.509 608.801 198.403 613.146 211.541C614.214 214.769 615.308 217.987 616.402 221.206C624.706 246.02 629.561 271.596 629.889 297.765C629.906 299.049 629.923 300.334 629.941 301.658C630.261 331.12 629.472 358.838 622.556 387.623C622.189 389.234 622.189 389.234 621.815 390.877C620.458 396.795 618.823 402.576 616.994 408.366C616.699 409.328 616.403 410.29 616.099 411.281C611.515 426.129 605.973 440.148 598.917 454C598.498 454.835 598.079 455.67 597.647 456.53C582.762 486.017 563.45 511.856 540.515 535.588C539.794 536.342 539.073 537.096 538.331 537.874C528.062 548.585 517.321 558.159 505.377 566.991C503.062 568.708 500.775 570.457 498.489 572.212C448.051 610.207 382.588 630.283 319.711 629.982C316.039 629.967 312.367 629.982 308.695 630C287.324 630.02 266.823 628.071 245.982 623.14C244.44 622.777 242.898 622.415 241.31 622.042C206.6 613.628 173.996 599.441 144.213 579.839C143.219 579.194 142.224 578.549 141.2 577.885C125.393 567.556 111.773 555.687 98.3251 542.502C96.6693 540.908 95.0126 539.314 93.355 537.722C84.1047 528.762 75.6843 519.451 67.7334 509.314C66.6705 508.036 65.6075 506.758 64.5124 505.441C39.4428 474.587 22.9179 438.012 12.1121 400.069C11.7771 398.918 11.4421 397.767 11.097 396.582C-1.64616 352.223 -3.42873 303.907 5.82447 258.711C6.6089 254.557 7.15925 250.4 7.71778 246.21C9.28823 235.87 12.437 226.186 15.8491 216.322C16.1608 215.409 16.4725 214.496 16.7936 213.555C21.3753 200.156 26.2601 187.184 32.9701 174.664C33.5013 173.637 34.0326 172.609 34.5799 171.551C46.7195 148.102 61.5544 126.879 78.8577 106.904C79.8991 105.699 80.9405 104.494 82.0135 103.253C87.5467 96.9908 93.2031 91.1982 99.6179 85.8321C102.785 83.1523 105.8 80.3385 108.841 77.5188C138.225 51.2774 176.644 28.4447 214.847 17.905C218.284 16.9631 218.284 16.9631 222.952 15.0312C279.72 -6.22215 351.289 -3.65609 408.276 14.6977Z" fill="#0F172A"/>
<path d="M356.91 196.557C358.162 196.553 359.414 196.548 360.704 196.543C363.371 196.536 366.039 196.533 368.706 196.533C372.679 196.53 376.652 196.505 380.625 196.479C403.625 196.407 426.66 197.486 449.174 202.494C450.368 202.745 451.563 202.997 452.794 203.256C455.617 203.852 458.436 204.467 461.254 205.087C461.254 206.456 461.254 207.825 461.254 209.235C458.386 211.821 455.508 214.201 452.476 216.582C412.148 249.694 396.459 303.119 388.153 352.54C387.604 355.55 386.942 358.499 386.228 361.474C384.578 368.791 383.612 376.148 382.667 383.582C382.272 386.561 381.875 389.539 381.478 392.517C380.867 397.129 380.263 401.742 379.676 406.358C374.186 449.361 362.994 488.539 331.935 520.377C331.101 521.307 330.268 522.238 329.409 523.196C308.451 545.794 275.1 560.863 245.722 568.776C243.137 569.496 243.137 569.496 240.501 570.23C234.868 571.615 229.386 571.966 223.598 571.958C222.583 571.964 221.568 571.97 220.522 571.976C218.385 571.984 216.248 571.985 214.11 571.979C210.912 571.974 207.716 572.007 204.519 572.042C186.901 572.118 170.673 569.531 153.859 564.109C152.495 563.669 152.495 563.669 151.102 563.221C148.337 562.321 145.579 561.402 142.822 560.479C141.941 560.19 141.059 559.901 140.151 559.603C118.407 552.44 118.407 552.44 110.84 546.651C110.381 545.282 109.922 543.913 109.449 542.502C111.267 542.024 111.267 542.024 113.121 541.535C124.371 538.472 134.927 534.777 145.603 530.056C147.544 529.218 149.485 528.381 151.426 527.545C178.968 515.611 204.935 502.981 227.645 483.04C228.562 482.243 229.48 481.446 230.426 480.625C266.272 447.279 286.174 397.429 307.513 354.464C310.573 348.309 313.642 342.158 316.712 336.008C318.279 332.862 319.843 329.715 321.402 326.565C333.209 302.732 345.328 279.134 361.136 257.635C338.74 265.681 319.181 289.8 304.124 307.418C302.836 308.904 301.546 310.389 300.256 311.874C292.738 320.541 285.334 329.282 278.073 338.164C272.02 345.512 265.82 352.736 259.627 359.966C258.932 360.778 258.237 361.591 257.521 362.428C248.639 372.808 239.675 383.094 230.426 393.154C229.803 393.836 229.179 394.518 228.537 395.221C216.006 408.932 203.329 422.695 189.112 434.71C186.528 436.898 183.98 439.115 181.442 441.354C168.572 452.664 155.254 463.224 141.432 473.36C140.482 474.056 139.532 474.753 138.554 475.471C123.382 486.526 107.602 496.495 91.5109 506.171C89.1416 507.599 86.7889 509.055 84.4415 510.518C81.6387 512.079 81.6387 512.079 78.8576 512.079C78.6919 496.881 78.9041 481.721 79.466 466.532C79.5205 464.968 79.5751 463.404 79.6313 461.792C79.6897 460.321 79.748 458.849 79.8082 457.333C79.8591 456.023 79.9101 454.712 79.9626 453.363C80.2224 450.168 80.8209 447.407 81.6387 444.32C81.8769 442.387 82.0739 440.448 82.2362 438.507C82.3354 437.391 82.4347 436.274 82.5369 435.124C82.6946 433.344 82.6946 433.344 82.8554 431.528C84.5337 413.964 87.5133 397.11 92.6434 380.174C93.7051 376.661 94.711 373.16 95.6635 369.619C111.049 313.298 147.947 267.381 198.628 238.443C225.674 223.458 254.692 213.825 284.656 206.47C286.367 206.049 286.367 206.049 288.112 205.621C304.485 201.692 320.751 199.689 337.543 198.496C353.917 196.561 353.917 196.561 356.91 196.557Z" fill="white"/>
<path d="M501.58 322.975C511.186 328.547 515.954 334.266 519.656 344.755C521.361 354.325 519.488 362.938 514.094 371.029C507.327 378.531 500.988 382.829 490.792 383.863C480.852 384.359 474.324 383.193 466.816 376.56C459.413 369.494 455.747 362.951 455.171 352.62C455.429 344.117 458.052 337.118 463.905 330.856C474.674 321.205 487.318 317.245 501.58 322.975Z" fill="white"/>
<path d="M349.756 89.7484C355.573 93.474 361.181 98.8351 363.455 105.462C364.971 114.738 364.622 123.208 360.413 131.731C356.078 137.692 349.561 141.008 343.059 144.241C334.356 145.064 327.049 144.674 319.42 140.093C313.479 134.414 307.564 128.402 306.438 120.02C306.291 109.804 307.58 102.396 314.759 94.799C325.488 85.1315 336.68 83.4378 349.756 89.7484Z" fill="white"/>
<path d="M501.58 137.327C507.569 140.42 512.204 143.874 515.485 149.773C516.74 157.294 516.773 164.102 512.443 170.602C508.352 175.338 504.92 177.041 498.652 177.77C491.049 178.188 486.615 177.061 480.722 171.898C475.782 166.495 475.69 160.569 475.871 153.549C476.958 147.501 480.114 143.832 484.893 140.093C490.294 136.915 495.412 136.368 501.58 137.327Z" fill="white"/>
<path d="M569.716 250.721C573.881 252.505 575.021 253.934 578.059 257.635C579.571 264.031 578.946 268.62 575.539 274.229C571.576 277.832 568.952 278.32 563.632 278.81C557.766 278.307 555.742 276.927 551.639 272.846C549.413 268.419 549.554 263.822 550.248 259.018C555.328 251.104 560.407 249.264 569.716 250.721Z" fill="white"/>
</svg>
